<?xml version="1.0" encoding="UTF-8" standalone="no"?>
<svg
   xmlns:dc="http://purl.org/dc/elements/1.1/"
   xmlns:cc="http://creativecommons.org/ns#"
   xmlns:rdf="http://www.w3.org/1999/02/22-rdf-syntax-ns#"
   xmlns:svg="http://www.w3.org/2000/svg"
   xmlns="http://www.w3.org/2000/svg"
   xmlns:sodipodi="http://sodipodi.sourceforge.net/DTD/sodipodi-0.dtd"
   xmlns:inkscape="http://www.inkscape.org/namespaces/inkscape"
   width="82"
   height="82"
   viewBox="0 0 82 82"
   version="1.1"
   id="svg74"
   sodipodi:docname="main-logo.svg"
   style="fill:none"
   inkscape:version="0.92.4 (5da689c313, 2019-01-14)">
  <metadata
     id="metadata78">
    <rdf:RDF>
      <cc:Work
         rdf:about="">
        <dc:format>image/svg+xml</dc:format>
        <dc:type
           rdf:resource="http://purl.org/dc/dcmitype/StillImage" />
        <dc:title></dc:title>
      </cc:Work>
    </rdf:RDF>
  </metadata>
  <sodipodi:namedview
     pagecolor="#ffffff"
     bordercolor="#666666"
     borderopacity="1"
     objecttolerance="10"
     gridtolerance="10"
     guidetolerance="10"
     inkscape:pageopacity="0"
     inkscape:pageshadow="2"
     inkscape:window-width="3840"
     inkscape:window-height="2019"
     id="namedview76"
     showgrid="false"
     inkscape:zoom="2.6516854"
     inkscape:cx="41"
     inkscape:cy="37.5"
     inkscape:window-x="3766"
     inkscape:window-y="-14"
     inkscape:window-maximized="1"
     inkscape:current-layer="svg74" />
  <g
     id="g4"
     style="filter:url(#filter0_d)">
    <path
       d="M 41,70 C 53.1503,70 63,60.1503 63,48 63,35.8497 53.1503,26 41,26 28.8497,26 19,35.8497 19,48 c 0,12.1503 9.8497,22 22,22 z"
       id="path2"
       inkscape:connector-curvature="0"
       style="clip-rule:evenodd;fill:#000000;fill-opacity:0.01000001;fill-rule:evenodd" />
  </g>
  <g
     id="g10"
     style="filter:url(#filter1_d)">
    <path
       d="M 41,70 C 57.5685,70 71,56.5685 71,40 71,23.4315 57.5685,10 41,10 24.4315,10 11,23.4315 11,40 11,56.5685 24.4315,70 41,70 Z"
       id="path6"
       inkscape:connector-curvature="0"
       style="clip-rule:evenodd;fill:#2196f3;fill-rule:evenodd" />
    <path
       d="M 69,40 C 69,55.464 56.464,68 41,68 25.536,68 13,55.464 13,40 13,24.536 25.536,12 41,12 56.464,12 69,24.536 69,40 Z"
       id="path8"
       inkscape:connector-curvature="0"
       style="stroke:#42a5f5;stroke-width:4" />
  </g>
  <mask
     id="mask0"
     mask-type="alpha"
     maskUnits="userSpaceOnUse"
     x="11"
     y="10"
     width="60"
     height="60">
    <path
       d="M 41,70 C 57.5685,70 71,56.5685 71,40 71,23.4315 57.5685,10 41,10 24.4315,10 11,23.4315 11,40 11,56.5685 24.4315,70 41,70 Z"
       id="path12"
       inkscape:connector-curvature="0"
       style="clip-rule:evenodd;fill:#ffffff;fill-rule:evenodd" />
  </mask>
  <g
     mask="url(#mask0)"
     id="g23">
    <path
       d="M 13.714,32.875 H 67.536"
       id="path15"
       inkscape:connector-curvature="0"
       style="stroke:#42a5f5;stroke-width:4;stroke-linecap:square" />
    <path
       d="M 13.714,48.625 H 67.536"
       id="path17"
       inkscape:connector-curvature="0"
       style="stroke:#42a5f5;stroke-width:4;stroke-linecap:square" />
    <path
       d="m 40.25,14.5 c 0,0 -9.9622,11.5775 -9.7465,26.25 C 30.7191,55.4225 40.25,65.5 40.25,65.5"
       id="path19"
       inkscape:connector-curvature="0"
       style="stroke:#42a5f5;stroke-width:4;stroke-linecap:round;stroke-linejoin:round" />
    <path
       d="m 41,14.5 c 0,0 9.9622,11.5775 9.7465,26.25 C 50.5309,55.4225 41,65.5 41,65.5"
       id="path21"
       inkscape:connector-curvature="0"
       style="stroke:#42a5f5;stroke-width:4;stroke-linecap:round;stroke-linejoin:round" />
  </g>
  <path
     d="m 51.1946,29.0278 c 0.2,-0.1155 0.4205,-0.1872 0.651,-0.2017 1.0165,-0.064 3.9524,-0.1481 4.5891,0.9548 0.6368,1.1029 -0.9049,3.6028 -1.4687,4.4505 -0.1277,0.1921 -0.3,0.347 -0.4998,0.4624 l -6.0758,3.5078 0.8439,17.1004 c 0.0118,0.2394 -0.1093,0.4659 -0.315,0.5891 L 47.67,56.6393 c -0.1645,0.0986 -0.3643,0.1193 -0.5456,0.0567 L 46.1776,56.369 C 46.019,56.3143 45.8877,56.2002 45.8114,56.0508 l -6.458,-12.6316 -6.3691,3.6772 -0.6869,4.6714 c -0.0476,0.3234 -0.3281,0.561 -0.6548,0.5548 l -0.498,-0.0094 c -0.2519,-0.0048 -0.4783,-0.1549 -0.5808,-0.385 l -1.7897,-4.016 c -1.2302,0.0393 -2.385,-0.0816 -2.6949,-0.6182 -0.3095,-0.5361 0.1637,-1.5919 0.8138,-2.6329 l -2.5635,-3.531 c -0.148,-0.2038 -0.1647,-0.4749 -0.0429,-0.6954 l 0.2408,-0.436 c 0.158,-0.2861 0.504,-0.4101 0.8078,-0.2897 l 4.3622,1.7302 6.3805,-3.6837 -7.6587,-11.8288 C 28.328,25.7858 28.2948,25.6152 28.3267,25.4504 l 0.1903,-0.9835 c 0.0364,-0.1883 0.1542,-0.3509 0.3219,-0.4441 l 1.2726,-0.7078 c 0.2095,-0.1166 0.4662,-0.1082 0.6676,0.0218 l 14.2977,9.2231 z"
     id="path25"
     inkscape:connector-curvature="0"
     style="clip-rule:evenodd;fill:#ffffff;fill-rule:evenodd" />
  <mask
     id="mask1"
     mask-type="alpha"
     maskUnits="userSpaceOnUse"
     x="16"
     y="13"
     width="50"
     height="51">
    <path
       d="m 51.1946,29.0278 c 0.2,-0.1155 0.4205,-0.1872 0.651,-0.2017 1.0165,-0.064 3.9524,-0.1481 4.5891,0.9548 0.6368,1.1029 -0.9049,3.6028 -1.4687,4.4505 -0.1277,0.1921 -0.3,0.347 -0.4998,0.4624 l -6.0758,3.5078 0.8439,17.1004 c 0.0118,0.2394 -0.1093,0.4659 -0.315,0.5891 L 47.67,56.6393 c -0.1645,0.0986 -0.3643,0.1193 -0.5456,0.0567 L 46.1776,56.369 C 46.019,56.3143 45.8877,56.2002 45.8114,56.0508 l -6.458,-12.6316 -6.3691,3.6772 -0.6869,4.6714 c -0.0476,0.3234 -0.3281,0.561 -0.6548,0.5548 l -0.498,-0.0094 c -0.2519,-0.0048 -0.4783,-0.1549 -0.5808,-0.385 l -1.7897,-4.016 c -1.2302,0.0393 -2.385,-0.0816 -2.6949,-0.6182 -0.3095,-0.5361 0.1637,-1.5919 0.8138,-2.6329 l -2.5635,-3.531 c -0.148,-0.2038 -0.1647,-0.4749 -0.0429,-0.6954 l 0.2408,-0.436 c 0.158,-0.2861 0.504,-0.4101 0.8078,-0.2897 l 4.3622,1.7302 6.3805,-3.6837 -7.6587,-11.8288 C 28.328,25.7858 28.2948,25.6152 28.3267,25.4504 l 0.1903,-0.9835 c 0.0364,-0.1883 0.1542,-0.3509 0.3219,-0.4441 l 1.2726,-0.7078 c 0.2095,-0.1166 0.4662,-0.1082 0.6676,0.0218 l 14.2977,9.2231 z"
       id="path27"
       inkscape:connector-curvature="0"
       style="clip-rule:evenodd;fill:#ffffff;fill-rule:evenodd" />
  </mask>
  <g
     mask="url(#mask1)"
     id="g40">
    <rect
       x="45.535999"
       y="30.783899"
       width="1.30853"
       height="12.4084"
       transform="rotate(60,45.536,30.7839)"
       id="rect30"
       style="fill:#ebecf2" />
    <path
       d="m 48.9193,55.8911 c 0.2057,-0.1232 0.3268,-0.3496 0.315,-0.5891 l -0.8715,-17.6594 -9.2364,5.3326 6.685,13.0756 c 0.0763,0.1494 0.2076,0.2635 0.3662,0.3182 l 0.9468,0.327 c 0.1813,0.0627 0.3811,0.0419 0.5456,-0.0567 z"
       id="path32"
       inkscape:connector-curvature="0"
       style="clip-rule:evenodd;fill:#dee1e3;fill-rule:evenodd" />
    <path
       d="m 28.8366,47.8013 -0.089,0.0514 1.8162,4.0755 c 0.1026,0.2302 0.3289,0.3802 0.5808,0.385 l 0.498,0.0094 c 0.3267,0.0062 0.6072,-0.2314 0.6548,-0.5548 l 0.7256,-4.9344 -0.463,0.2673 c -0.1433,0.0827 -0.2974,0.1445 -0.4589,0.1806 -0.5502,0.1228 -1.9464,0.4138 -3.2645,0.52 z"
       id="path34"
       inkscape:connector-curvature="0"
       style="clip-rule:evenodd;opacity:0.4;fill:#dee1e3;fill-rule:evenodd" />
    <path
       d="m 39.2482,43.2134 9.1294,-5.2708 0.0993,2.0113 -7.5209,6.5999 z"
       id="path36"
       inkscape:connector-curvature="0"
       style="clip-rule:evenodd;fill:#c5c6cc;fill-rule:evenodd" />
    <path
       d="M 57.4822,32.9524 27.6913,50.1523 c 0,0 -0.8791,-1.5887 -1.6121,-2.8584 -0.0089,-0.0153 -0.0172,-0.0309 -0.0251,-0.0466 1.3515,0.0977 4.0727,-0.0122 6.7119,-1.5359 L 53.3906,33.8038 c 2.2916,-1.3231 2.8529,-3.0364 3.162,-3.7729 0.4785,1.2851 0.9296,2.9215 0.9296,2.9215 z"
       id="path38"
       inkscape:connector-curvature="0"
       style="clip-rule:evenodd;fill:#dee1e3;fill-rule:evenodd" />
  </g>
  <defs
     id="defs72">
    <filter
       id="filter0_d"
       x="8"
       y="23"
       width="66"
       height="66"
       filterUnits="userSpaceOnUse"
       style="color-interpolation-filters:sRGB">
      <feFlood
         flood-opacity="0"
         result="BackgroundImageFix"
         id="feFlood42" />
      <feColorMatrix
         in="SourceAlpha"
         type="matrix"
         values="0 0 0 0 0 0 0 0 0 0 0 0 0 0 0 0 0 0 127 0"
         id="feColorMatrix44" />
      <feOffset
         dy="8"
         id="feOffset46" />
      <feGaussianBlur
         stdDeviation="5.5"
         id="feGaussianBlur48" />
      <feColorMatrix
         type="matrix"
         values="0 0 0 0 0.215686 0 0 0 0 0.407843 0 0 0 0 0.556863 0 0 0 0.25 0"
         id="feColorMatrix50" />
      <feBlend
         mode="normal"
         in2="BackgroundImageFix"
         result="effect1_dropShadow"
         id="feBlend52" />
      <feBlend
         mode="normal"
         in="SourceGraphic"
         in2="effect1_dropShadow"
         result="shape"
         id="feBlend54" />
    </filter>
    <filter
       id="filter1_d"
       x="0"
       y="0"
       width="82"
       height="82"
       filterUnits="userSpaceOnUse"
       style="color-interpolation-filters:sRGB">
      <feFlood
         flood-opacity="0"
         result="BackgroundImageFix"
         id="feFlood57" />
      <feColorMatrix
         in="SourceAlpha"
         type="matrix"
         values="0 0 0 0 0 0 0 0 0 0 0 0 0 0 0 0 0 0 127 0"
         id="feColorMatrix59" />
      <feOffset
         dy="1"
         id="feOffset61" />
      <feGaussianBlur
         stdDeviation="5.5"
         id="feGaussianBlur63" />
      <feColorMatrix
         type="matrix"
         values="0 0 0 0 0.215686 0 0 0 0 0.407843 0 0 0 0 0.556863 0 0 0 0.3 0"
         id="feColorMatrix65" />
      <feBlend
         mode="normal"
         in2="BackgroundImageFix"
         result="effect1_dropShadow"
         id="feBlend67" />
      <feBlend
         mode="normal"
         in="SourceGraphic"
         in2="effect1_dropShadow"
         result="shape"
         id="feBlend69" />
    </filter>
  </defs>
</svg>
